<?xml version="1.0" standalone="no"?><!DOCTYPE svg PUBLIC "-//W3C//DTD SVG 1.1//EN" "http://www.w3.org/Graphics/SVG/1.1/DTD/svg11.dtd"><svg t="1606983618020" class="icon" viewBox="0 0 1024 1024" version="1.1" xmlns="http://www.w3.org/2000/svg" p-id="1574" xmlns:xlink="http://www.w3.org/1999/xlink" width="20" height="20"><defs><style type="text/css"></style></defs><path d="M512 58.514286A466.505143 466.505143 0 0 0 43.885714 526.628571c0 259.803429 208.310857 468.114286 468.114286 468.114286 259.803429 0 468.114286-208.310857 468.114286-468.114286C980.114286 266.825143 771.803429 58.514286 512 58.514286z" fill="#ff802b" p-id="1575" data-spm-anchor-id="a313x.7781069.0.i11" class="selected"></path><path d="M707.657143 722.285714a33.645714 33.645714 0 0 1-46.811429 0L512 573.44 363.154286 722.285714a33.645714 33.645714 0 0 1-46.811429 0 33.645714 33.645714 0 0 1 0-46.811428L465.188571 526.628571 316.342857 377.782857a33.645714 33.645714 0 0 1 0-46.811428 33.645714 33.645714 0 0 1 46.811429 0L512 479.817143l148.845714-148.845714a33.645714 33.645714 0 0 1 46.811429 0 33.645714 33.645714 0 0 1 0 46.811428L558.811429 526.628571l148.845714 148.845715c17.334857 12.653714 17.334857 36.059429 0 46.811428z" fill="#FFFFFF" p-id="1576"></path></svg>